<svg width="16" height="16" viewBox="0 0 16 16" fill="none" xmlns="http://www.w3.org/2000/svg">
<path d="M5.18771 3.00024C5.36029 3.00024 5.5002 3.14015 5.5002 3.31274V3.62523H10.5001V3.31274C10.5001 3.14015 10.64 3.00024 10.8126 3.00024C10.9852 3.00024 11.1251 3.14015 11.1251 3.31274V3.62523H11.7501C12.4404 3.62523 13.0001 4.18487 13.0001 4.87521V11.7501C13.0001 12.4404 12.4404 13.0001 11.7501 13.0001H4.25022C3.55988 13.0001 3.00024 12.4404 3.00024 11.7501V4.87521C3.00024 4.18487 3.55988 3.62523 4.25022 3.62523H4.87521V3.31274C4.87521 3.14015 5.01512 3.00024 5.18771 3.00024ZM4.25022 4.25022C3.90505 4.25022 3.62523 4.53004 3.62523 4.87521V5.5002H12.3751V4.87521C12.3751 4.53004 12.0953 4.25022 11.7501 4.25022H4.25022ZM12.3751 6.12519H3.62523V11.7501C3.62523 12.0953 3.90505 12.3751 4.25022 12.3751H11.7501C12.0953 12.3751 12.3751 12.0953 12.3751 11.7501V6.12519Z" fill="#727272"/>
<path d="M9.875 7.68749C9.875 7.51491 10.0149 7.375 10.1875 7.375H10.8125C10.9851 7.375 11.125 7.51491 11.125 7.68749V8.31248C11.125 8.48507 10.9851 8.62498 10.8125 8.62498H10.1875C10.0149 8.62498 9.875 8.48507 9.875 8.31248V7.68749Z" fill="#727272"/>
</svg>
