<svg width="11" height="6" viewBox="0 0 11 6" fill="none" xmlns="http://www.w3.org/2000/svg">
<path d="M5.54076 4.52258C5.60324 4.44839 5.63838 4.40153 5.68134 4.35857C7.06754 2.97237 8.45375 1.58226 9.84386 0.199959C9.92976 0.114053 10.0469 0.043767 10.1641 0.0125285C10.3437 -0.0382339 10.5389 0.0710999 10.6326 0.235102C10.7263 0.399103 10.7146 0.606058 10.5936 0.758345C10.5584 0.805203 10.5155 0.844251 10.4725 0.887204C8.96528 2.39446 7.45802 3.90171 5.95077 5.41287C5.65791 5.70573 5.42362 5.70573 5.13466 5.41678C3.61179 3.8939 2.09282 2.37103 0.569946 0.852061C0.425468 0.707584 0.343468 0.547486 0.405945 0.340532C0.49966 0.0242427 0.874521 -0.0968065 1.13614 0.102339C1.183 0.137482 1.22205 0.180435 1.265 0.223388C2.6473 1.60569 4.03351 2.99189 5.41581 4.37419C5.45486 4.40934 5.4861 4.4562 5.54076 4.52258Z" fill="#616161"/>
</svg>
