<svg width="21" height="15" viewBox="0 0 21 15" fill="none" xmlns="http://www.w3.org/2000/svg">
<g clip-path="url(#clip0_209_2152)">
<path d="M20.9999 1.23676C20.8874 1.55265 20.6594 1.78417 20.4219 2.01529C16.1638 6.15386 11.9078 10.2948 7.6538 14.4378C7.41635 14.6689 7.17849 14.8908 6.85395 15.0004H6.40288C6.06601 14.8832 5.82363 14.6457 5.57796 14.4062C3.85542 12.726 2.12959 11.0494 0.405399 9.37074C-0.0177395 8.95888 -0.109762 8.51584 0.131797 8.07359C0.43621 7.51698 1.18143 7.35944 1.69412 7.74571C1.77464 7.80648 1.84777 7.87726 1.92048 7.94763C3.4331 9.41832 4.94531 10.889 6.4571 12.3609C6.5101 12.4125 6.55488 12.4721 6.6547 12.5864C6.72126 12.4893 6.75946 12.4081 6.82026 12.3489C10.9099 8.36589 15.0029 4.38607 19.0933 0.40345C19.4027 0.102355 19.7461 -0.0743842 20.1935 0.0307794C20.5686 0.118749 20.8114 0.351868 20.9486 0.697348C20.9625 0.732136 20.9827 0.764925 21.0003 0.798513V1.23716L20.9999 1.23676Z" fill="white"/>
</g>
<defs>
<clipPath id="clip0_209_2152">
<rect width="21" height="15" fill="white"/>
</clipPath>
</defs>
</svg>
