<svg width="18" height="19" viewBox="0 0 18 19" fill="none" xmlns="http://www.w3.org/2000/svg">
<path d="M16.7119 16.4131L13.0557 12.7569H13.0163C14.1432 11.4281 14.7127 9.71504 14.6056 7.97602C14.4986 6.23701 13.7232 4.60675 12.4417 3.42629C11.1603 2.24582 9.47199 1.60658 7.73005 1.6423C5.9881 1.67801 4.32744 2.38591 3.09544 3.61791C1.86344 4.84991 1.15554 6.51057 1.11983 8.25252C1.08411 9.99446 1.72335 11.6827 2.90382 12.9642C4.08428 14.2457 5.71454 15.021 7.45355 15.1281C9.19257 15.2352 10.9056 14.6657 12.2344 13.5387C12.2344 13.5387 12.2344 13.5669 12.2344 13.5781L15.8907 17.2344C15.9429 17.2871 16.0052 17.3289 16.0737 17.3575C16.1423 17.3861 16.2158 17.4008 16.29 17.4008C16.3643 17.4008 16.4378 17.3861 16.5064 17.3575C16.5749 17.3289 16.6371 17.2871 16.6894 17.2344C16.7471 17.1833 16.7936 17.121 16.8262 17.0512C16.8588 16.9814 16.8767 16.9056 16.8788 16.8286C16.8809 16.7516 16.8672 16.675 16.8385 16.6036C16.8098 16.5321 16.7667 16.4673 16.7119 16.4131ZM7.87503 14C6.76251 14 5.67497 13.6701 4.74995 13.052C3.82492 12.4339 3.10395 11.5554 2.67821 10.5276C2.25247 9.49976 2.14107 8.36876 2.35811 7.27762C2.57516 6.18647 3.11088 5.18419 3.89756 4.39752C4.68423 3.61085 5.6865 3.07512 6.77765 2.85808C7.86879 2.64104 8.99979 2.75243 10.0276 3.17818C11.0555 3.60392 11.934 4.32489 12.552 5.24992C13.1701 6.17494 13.5 7.26248 13.5 8.375C13.5 9.11369 13.3545 9.84514 13.0719 10.5276C12.7892 11.2101 12.3748 11.8301 11.8525 12.3525C11.3302 12.8748 10.7101 13.2891 10.0276 13.5718C9.34517 13.8545 8.61372 14 7.87503 14Z" fill="black"/>
</svg>
