<svg width="21" height="19" viewBox="0 0 21 19" fill="none" xmlns="http://www.w3.org/2000/svg">
<g clip-path="url(#clip0_209_2159)">
<path d="M20.9999 16.954C20.8861 17.2537 20.8126 17.5775 20.6516 17.8481C20.1701 18.6576 19.4307 19.0009 18.504 18.9997C14.7738 18.993 11.0436 18.9972 7.31332 18.9972C5.70103 18.9972 4.08874 18.9926 2.47645 18.9988C1.61711 19.0022 0.911815 18.6916 0.428334 17.964C-0.13114 17.1217 -0.132783 16.2471 0.366308 15.372C1.70872 13.0196 3.05318 10.6684 4.39682 8.31639C5.73389 5.97641 7.07219 3.63768 8.40639 1.29605C8.78389 0.633533 9.31297 0.191856 10.0704 0.042832C10.9704 -0.13442 11.9386 0.236273 12.4238 1.02623C13.0099 1.98015 13.553 2.96147 14.1092 3.93407C16.2661 7.70576 18.4239 11.4766 20.5706 15.2537C20.7538 15.5762 20.8586 15.944 20.9999 16.2911V16.954ZM10.5034 17.7448C12.5938 17.7448 14.6842 17.7448 16.7751 17.7448C17.39 17.7448 18.0049 17.7485 18.6195 17.7435C19.1333 17.7394 19.5096 17.4754 19.6895 16.9976C19.8329 16.6173 19.7306 16.2728 19.5384 15.9366C17.7088 12.7381 15.8817 9.53847 14.0541 6.33922C13.2083 4.85894 12.3638 3.37824 11.5164 1.89879C11.2161 1.37492 10.7626 1.16197 10.2319 1.28982C9.87367 1.37617 9.65021 1.62233 9.47276 1.93283C8.01122 4.49447 6.54681 7.05404 5.08364 9.61444C3.87966 11.7211 2.67691 13.829 1.47129 15.9349C1.28316 16.2637 1.178 16.6016 1.31232 16.976C1.49676 17.4903 1.87262 17.744 2.44893 17.744C5.13375 17.7448 7.81857 17.744 10.5038 17.7444L10.5034 17.7448Z" fill="white"/>
<path d="M11.1108 5.95349V12.3487H9.90723V5.95349H11.1108Z" fill="white"/>
<path d="M11.3238 14.4312C11.325 14.8924 10.9689 15.2577 10.5146 15.2615C10.0492 15.2656 9.6844 14.8991 9.68604 14.4296C9.68768 13.975 10.057 13.6031 10.5055 13.6035C10.9545 13.6039 11.3222 13.9759 11.3234 14.4312H11.3238Z" fill="white"/>
</g>
<defs>
<clipPath id="clip0_209_2159">
<rect width="21" height="19" fill="white"/>
</clipPath>
</defs>
</svg>
