<svg width="16" height="16" viewBox="0 0 16 16" fill="none" xmlns="http://www.w3.org/2000/svg">
<path d="M12.9 3.99265C13.0333 4.12731 13.0333 4.34564 12.9 4.48031L12.1881 5.19954L10.8227 3.82023L11.5347 3.101C11.668 2.96633 11.8841 2.96633 12.0174 3.101L12.9 3.99265Z" fill="#727272"/>
<path d="M11.7053 5.6872L10.34 4.30789L5.68883 9.0065C5.65136 9.04436 5.62313 9.0905 5.60637 9.14129L5.05711 10.8059C5.01263 10.9407 5.13957 11.0689 5.27299 11.024L6.92078 10.4691C6.97105 10.4522 7.01673 10.4237 7.0542 10.3858L11.7053 5.6872Z" fill="#727272"/>
<path fill-rule="evenodd" clip-rule="evenodd" d="M3 11.9655C3 12.5368 3.45847 13 4.02403 13H11.5336C12.0991 13 12.5576 12.5368 12.5576 11.9655V7.82759C12.5576 7.63714 12.4048 7.48276 12.2162 7.48276C12.0277 7.48276 11.8749 7.63714 11.8749 7.82759V11.9655C11.8749 12.156 11.7221 12.3103 11.5336 12.3103H4.02403C3.83551 12.3103 3.68269 12.156 3.68269 11.9655V4.37931C3.68269 4.18887 3.83551 4.03448 4.02403 4.03448H8.46148C8.65 4.03448 8.80282 3.8801 8.80282 3.68966C8.80282 3.49921 8.65 3.34483 8.46148 3.34483H4.02403C3.45847 3.34483 3 3.80798 3 4.37931V11.9655Z" fill="#727272"/>
</svg>
